name analog
datacolumns 19
datarows 29
range 0.6655 0.6795
endheader
time	ground_force_vx	ground_force_vy	ground_force_vz	ground_force_px	ground_force_py	ground_force_pz	l_ground_force_vx	l_ground_force_vy	l_ground_force_vz	l_ground_force_px	l_ground_force_py	l_ground_force_pz	ground_torque_x	ground_torque_y	ground_torque_z	l_ground_torque_x	l_ground_torque_y	l_ground_torque_z
0.6655	-0.0	-0.0	-0.0	-0.0	-0.0	-0.0	-0.6454966068267822	1.4533584117889404	-756.6910400390625	-0.0	-0.0	-0.0	-0.0	-0.0	-0.0	246245.546875	8734.30859375	-1974.074951171875
0.666	-0.0	-0.0	-0.0	-0.0	-0.0	-0.0	-0.3470593988895416	1.5293612480163574	-757.4691162109375	-0.0	-0.0	-0.0	-0.0	-0.0	-0.0	246566.078125	8957.212890625	-2115.373291015625
0.6665	-0.0	-0.0	-0.0	-0.0	-0.0	-0.0	-0.5043312907218933	1.128011703491211	-757.3895874023438	-0.0	-0.0	-0.0	-0.0	-0.0	-0.0	246918.296875	9191.25	-2053.665283203125
0.667	-0.0	-0.0	-0.0	-0.0	-0.0	-0.0	-0.7781004309654236	1.529167652130127	-757.9578857421875	-0.0	-0.0	-0.0	-0.0	-0.0	-0.0	247709.4375	9089.775390625	-2145.27880859375
0.6675	-0.0	-0.0	-0.0	-0.0	-0.0	-0.0	-0.9758186340332032	1.9706640243530276	-758.946533203125	-0.0	-0.0	-0.0	-0.0	-0.0	-0.0	248385.734375	9258.51953125	-2297.923583984375
0.668	-0.0	-0.0	-0.0	-0.0	-0.0	-0.0	-0.5729874968528748	2.840760469436645	-761.5283203125	-0.0	-0.0	-0.0	-0.0	-0.0	-0.0	249238.875	8945.75	-2576.078125
0.6685	-0.0	-0.0	-0.0	-0.0	-0.0	-0.0	-0.4639528095722198	3.390701532363892	-763.2734375	-0.0	-0.0	-0.0	-0.0	-0.0	-0.0	250382.765625	8799.79296875	-2587.0615234375
0.669	-0.0	-0.0	-0.0	-0.0	-0.0	-0.0	-0.2935340106487274	3.729857444763184	-764.1046142578125	-0.0	-0.0	-0.0	-0.0	-0.0	-0.0	251532.4375	8572.6201171875	-2664.5205078125
0.6695	-0.0	-0.0	-0.0	-0.0	-0.0	-0.0	-0.4504232704639435	4.205538749694824	-768.59033203125	-0.0	-0.0	-0.0	-0.0	-0.0	-0.0	252916.03125	8148.82275390625	-2742.02734375
0.67	-0.0	-0.0	-0.0	-0.0	-0.0	-0.0	0.2933495938777923	5.149755477905273	-771.3024291992188	-0.0	-0.0	-0.0	-0.0	-0.0	-0.0	254333.296875	7832.693359375	-2629.481689453125
0.6705	-0.0	-0.0	-0.0	-0.0	-0.0	-0.0	1.0094928741455078	5.849676609039307	-774.5249633789062	-0.0	-0.0	-0.0	-0.0	-0.0	-0.0	255683.203125	7380.8017578125	-2517.04296875
0.671	-0.0	-0.0	-0.0	-0.0	-0.0	-0.0	1.6032545566558838	6.794337749481201	-776.51318359375	-0.0	-0.0	-0.0	-0.0	-0.0	-0.0	257008.203125	6975.69384765625	-2279.104736328125
0.6715	-0.0	-0.0	-0.0	-0.0	-0.0	-0.0	1.3861514329910278	7.262887954711914	-779.0631713867188	-0.0	-0.0	-0.0	-0.0	-0.0	-0.0	257802.0625	6642.3203125	-2424.84228515625
0.672	-0.0	-0.0	-0.0	-0.0	-0.0	-0.0	1.194515347480774	7.8134026527404785	-780.64599609375	-0.0	-0.0	-0.0	-0.0	-0.0	-0.0	258477.390625	6417.05859375	-2319.921875
0.6725	-0.0	-0.0	-0.0	-0.0	-0.0	-0.0	1.2419509887695312	8.396574974060059	-780.7267456054688	-0.0	-0.0	-0.0	-0.0	-0.0	-0.0	258594.265625	6111.306640625	-2415.613525390625
0.673	-0.0	-0.0	-0.0	-0.0	-0.0	-0.0	1.315860629081726	8.24040412902832	-778.07275390625	-0.0	-0.0	-0.0	-0.0	-0.0	-0.0	258473.421875	5810.3291015625	-2242.5419921875
0.6735	-0.0	-0.0	-0.0	-0.0	-0.0	-0.0	1.4251238107681274	8.349262237548828	-779.3289794921875	-0.0	-0.0	-0.0	-0.0	-0.0	-0.0	258580.59375	5673.16943359375	-2172.36474609375
0.674	-0.0	-0.0	-0.0	-0.0	-0.0	-0.0	1.6647275686264038	8.926067352294922	-776.944091796875	-0.0	-0.0	-0.0	-0.0	-0.0	-0.0	258399.5625	5274.91015625	-1940.4798583984373
0.6745	-0.0	-0.0	-0.0	-0.0	-0.0	-0.0	1.90453577041626	9.564923286437988	-776.0822143554688	-0.0	-0.0	-0.0	-0.0	-0.0	-0.0	258484.3125	5014.38818359375	-1819.6361083984373
0.675	-0.0	-0.0	-0.0	-0.0	-0.0	-0.0	2.1082167625427246	9.975031852722168	-774.5213623046875	-0.0	-0.0	-0.0	-0.0	-0.0	-0.0	258017.359375	4662.5537109375	-1646.611083984375
0.6755	-0.0	-0.0	-0.0	-0.0	-0.0	-0.0	2.0142762660980225	10.203739166259766	-774.2539672851562	-0.0	-0.0	-0.0	-0.0	-0.0	-0.0	257802.796875	4742.82275390625	-1528.0513916015625
0.676	-0.0	-0.0	-0.0	-0.0	-0.0	-0.0	2.1708662509918213	10.396073341369627	-771.522705078125	-0.0	-0.0	-0.0	-0.0	-0.0	-0.0	257499.171875	4254.6689453125	-1494.7015380859375
0.6765	-0.0	-0.0	-0.0	-0.0	-0.0	-0.0	2.9114606380462646	10.82679271697998	-770.4952392578125	-0.0	-0.0	-0.0	-0.0	-0.0	-0.0	256962.3125	4120.91650390625	-1164.427978515625
0.677	-0.0	-0.0	-0.0	-0.0	-0.0	-0.0	2.6307528018951416	10.640376091003418	-768.5652465820312	-0.0	-0.0	-0.0	-0.0	-0.0	-0.0	256714.53125	4080.609375	-1100.0108642578125
0.6775	-0.0	-0.0	-0.0	-0.0	-0.0	-0.0	2.8901302814483643	10.619516372680664	-766.9022827148438	-0.0	-0.0	-0.0	-0.0	-0.0	-0.0	256349.734375	3988.832763671875	-996.80029296875
0.678	-0.0	-0.0	-0.0	-0.0	-0.0	-0.0	2.8432817459106445	11.195902824401855	-764.310791015625	-0.0	-0.0	-0.0	-0.0	-0.0	-0.0	255454.46875	4190.7236328125	-1063.03955078125
0.6785	-0.0	-0.0	-0.0	-0.0	-0.0	-0.0	2.707872152328491	11.216854095458984	-763.6775512695312	-0.0	-0.0	-0.0	-0.0	-0.0	-0.0	255443.890625	4127.77880859375	-1056.081298828125
0.679	-0.0	-0.0	-0.0	-0.0	-0.0	-0.0	2.952841520309448	11.5743989944458	-762.9793701171875	-0.0	-0.0	-0.0	-0.0	-0.0	-0.0	255043.1875	3789.238037109375	-824.1229248046875
0.6795	-0.0	-0.0	-0.0	-0.0	-0.0	-0.0	2.995020866394043	11.553196907043455	-762.3644409179688	-0.0	-0.0	-0.0	-0.0	-0.0	-0.0	254578.703125	3528.28564453125	-736.5364379882812
